<?xml version="1.0" encoding="UTF-8" standalone="no"?><!-- Generator: Gravit.io --><svg xmlns="http://www.w3.org/2000/svg" xmlns:xlink="http://www.w3.org/1999/xlink" style="isolation:isolate" viewBox="0 0 750.169 79.803" width="750.169pt" height="79.803pt"><defs><clipPath id="_clipPath_vtzFABWQkZQMIiSLB6hAmVk5sZnRku6b"><rect width="750.169" height="79.803"/></clipPath></defs><g clip-path="url(#_clipPath_vtzFABWQkZQMIiSLB6hAmVk5sZnRku6b)"><g><path d=" M 121.52 3.884 L 123.504 3.912 L 125.432 4.026 L 127.303 4.224 L 129.088 4.508 L 130.846 4.848 L 132.518 5.273 L 134.134 5.783 L 135.693 6.35 L 137.195 7.002 L 138.613 7.711 L 140.002 8.476 L 141.334 9.298 L 142.61 10.177 L 143.828 11.112 L 144.991 12.133 L 146.096 13.182 L 133.255 25.852 L 132.66 25.314 L 132.036 24.775 L 131.413 24.293 L 130.732 23.84 L 130.052 23.386 L 129.343 22.989 L 128.606 22.621 L 127.841 22.252 L 127.047 21.941 L 126.225 21.657 L 125.347 21.43 L 124.44 21.26 L 123.504 21.09 L 122.512 21.005 L 121.491 20.949 L 120.414 20.92 L 119.536 20.949 L 118.685 21.005 L 117.835 21.09 L 117.013 21.232 L 116.219 21.43 L 115.425 21.657 L 114.66 21.912 L 113.895 22.224 L 113.158 22.564 L 112.477 22.933 L 111.797 23.33 L 111.117 23.783 L 110.493 24.237 L 109.898 24.747 L 109.331 25.286 L 108.764 25.852 L 108.254 26.448 L 107.743 27.1 L 107.29 27.752 L 106.836 28.432 L 106.44 29.169 L 106.071 29.906 L 105.731 30.7 L 105.419 31.493 L 105.136 32.315 L 104.88 33.194 L 104.682 34.045 L 104.512 34.952 L 104.37 35.859 L 104.285 36.794 L 104.228 37.758 L 104.2 38.722 L 104.228 39.856 L 104.285 40.961 L 104.399 42.01 L 104.54 43.03 L 104.739 44.023 L 104.965 44.958 L 105.249 45.893 L 105.561 46.744 L 105.929 47.594 L 106.326 48.388 L 106.723 49.182 L 107.177 49.89 L 107.658 50.599 L 108.14 51.251 L 108.679 51.875 L 109.246 52.47 L 109.841 53.008 L 110.436 53.547 L 111.06 54.029 L 111.712 54.454 L 112.392 54.879 L 113.073 55.248 L 113.781 55.588 L 114.518 55.9 L 115.284 56.183 L 116.021 56.41 L 116.786 56.608 L 117.551 56.75 L 118.345 56.892 L 119.11 56.977 L 119.904 57.034 L 120.726 57.062 L 122.257 57.005 L 123.731 56.892 L 125.12 56.693 L 126.424 56.438 L 127.643 56.098 L 128.777 55.673 L 129.825 55.163 L 130.789 54.567 L 131.696 53.915 L 132.49 53.178 L 133.255 52.385 L 133.936 51.478 L 134.531 50.514 L 135.069 49.493 L 135.523 48.36 L 135.92 47.169 L 120.188 47.169 L 120.188 33.818 L 153.58 33.818 L 153.693 34.612 L 153.778 35.377 L 153.863 36.171 L 153.891 36.908 L 153.977 39.884 L 153.891 42.605 L 153.778 43.938 L 153.636 45.241 L 153.466 46.517 L 153.24 47.764 L 152.984 48.955 L 152.673 50.145 L 152.332 51.279 L 151.964 52.413 L 151.567 53.49 L 151.142 54.567 L 150.66 55.616 L 150.178 56.608 L 149.64 57.601 L 149.073 58.536 L 148.477 59.471 L 147.882 60.35 L 147.23 61.229 L 146.578 62.051 L 145.898 62.845 L 145.189 63.638 L 144.452 64.375 L 143.687 65.084 L 142.893 65.764 L 142.099 66.445 L 141.277 67.068 L 140.455 67.664 L 139.605 68.23 L 138.726 68.769 L 137.847 69.279 L 136.969 69.761 L 135.126 70.64 L 133.255 71.405 L 131.356 72.057 L 129.4 72.567 L 127.444 72.993 L 125.46 73.276 L 123.504 73.446 L 121.52 73.503 L 119.564 73.475 L 117.665 73.361 L 115.765 73.163 L 113.923 72.879 L 112.137 72.511 L 110.38 72.057 L 108.679 71.547 L 106.978 70.952 L 105.362 70.271 L 103.803 69.534 L 102.273 68.741 L 100.827 67.862 L 99.438 66.927 L 98.106 65.934 L 96.83 64.886 L 95.611 63.78 L 94.449 62.589 L 93.372 61.342 L 92.351 60.067 L 91.388 58.706 L 90.48 57.317 L 89.658 55.843 L 88.893 54.341 L 88.213 52.753 L 87.589 51.138 L 87.051 49.465 L 86.569 47.793 L 86.2 46.035 L 85.917 44.278 L 85.718 42.464 L 85.577 40.621 L 85.548 38.722 L 85.605 36.199 L 85.718 34.98 L 85.832 33.761 L 86.002 32.571 L 86.2 31.38 L 86.455 30.189 L 86.739 29.056 L 87.051 27.922 L 87.391 26.816 L 87.788 25.711 L 88.184 24.634 L 88.638 23.613 L 89.12 22.593 L 89.63 21.572 L 90.169 20.608 L 90.736 19.645 L 91.359 18.709 L 91.983 17.802 L 92.635 16.923 L 93.343 16.073 L 94.08 15.251 L 94.817 14.429 L 95.611 13.635 L 96.433 12.898 L 97.284 12.161 L 98.134 11.452 L 99.013 10.772 L 99.948 10.12 L 100.884 9.525 L 101.819 8.93 L 102.811 8.363 L 103.832 7.824 L 104.852 7.342 L 105.901 6.86 L 106.978 6.435 L 108.084 6.038 L 109.217 5.67 L 111.514 5.018 L 112.704 4.763 L 113.923 4.536 L 116.389 4.167 L 118.94 3.941 L 121.52 3.884 Z " fill-rule="evenodd" fill="rgb(0,0,0)"/><rect x="85.52" y="3.856" width="68.485" height="69.704" transform="matrix(1,0,0,1,0,0)" fill="none"/></g><g><path d=" M 213.617 72.298 L 161.12 72.298 L 161.12 5.117 L 213.617 5.117 L 213.617 21.331 L 179.375 21.331 L 179.375 30.204 L 211.236 30.204 L 211.236 46.418 L 179.375 46.418 L 179.375 56.084 L 213.617 56.084 L 213.617 72.298 Z " fill-rule="evenodd" fill="rgb(0,0,0)"/><rect x="161.12" y="5.089" width="52.554" height="67.238" transform="matrix(1,0,0,1,0,0)" fill="none"/></g><g><path d=" M 254.238 3.856 L 256.165 3.884 L 258.065 4.026 L 259.907 4.224 L 261.721 4.508 L 263.479 4.876 L 265.208 5.33 L 266.909 5.84 L 268.553 6.464 L 270.169 7.144 L 271.699 7.909 L 273.202 8.703 L 274.619 9.582 L 276.008 10.517 L 277.34 11.538 L 278.588 12.615 L 279.806 13.749 L 280.969 14.939 L 282.046 16.158 L 283.066 17.462 L 284.002 18.823 L 284.88 20.24 L 285.703 21.686 L 286.468 23.216 L 287.148 24.775 L 287.772 26.391 L 288.282 28.035 L 288.736 29.736 L 289.104 31.437 L 289.388 33.194 L 289.614 35.008 L 289.728 36.823 L 289.756 38.693 L 289.728 40.564 L 289.614 42.378 L 289.388 44.193 L 289.104 45.95 L 288.736 47.651 L 288.282 49.352 L 287.772 50.996 L 287.148 52.612 L 286.468 54.171 L 285.703 55.701 L 284.88 57.147 L 284.002 58.564 L 283.066 59.925 L 282.046 61.201 L 280.969 62.448 L 279.806 63.638 L 278.588 64.772 L 277.34 65.849 L 276.008 66.841 L 274.619 67.805 L 273.202 68.656 L 271.699 69.478 L 270.169 70.243 L 268.553 70.923 L 266.909 71.519 L 265.208 72.057 L 263.479 72.511 L 261.721 72.879 L 259.907 73.163 L 258.065 73.361 L 256.165 73.503 L 254.238 73.531 L 252.339 73.503 L 250.44 73.361 L 248.597 73.163 L 246.783 72.879 L 245.025 72.511 L 243.296 72.057 L 241.595 71.519 L 239.951 70.923 L 238.336 70.243 L 236.805 69.478 L 235.303 68.656 L 233.885 67.805 L 232.496 66.841 L 231.164 65.849 L 229.917 64.772 L 228.698 63.638 L 227.536 62.448 L 226.458 61.201 L 225.438 59.925 L 224.503 58.564 L 223.624 57.147 L 222.802 55.701 L 222.036 54.171 L 221.356 52.612 L 220.732 50.996 L 220.222 49.352 L 219.769 47.651 L 219.4 45.95 L 219.117 44.193 L 218.89 42.378 L 218.777 40.564 L 218.748 38.693 L 218.777 36.823 L 218.89 35.008 L 219.117 33.194 L 219.4 31.437 L 219.769 29.736 L 220.222 28.035 L 220.732 26.391 L 221.356 24.775 L 222.036 23.216 L 222.802 21.686 L 223.624 20.24 L 224.503 18.823 L 225.438 17.462 L 226.458 16.158 L 227.536 14.939 L 228.698 13.749 L 229.917 12.615 L 231.164 11.538 L 232.496 10.517 L 233.885 9.582 L 235.303 8.703 L 236.805 7.909 L 238.336 7.144 L 239.951 6.464 L 241.595 5.84 L 243.296 5.33 L 245.025 4.876 L 246.783 4.508 L 248.597 4.224 L 250.44 4.026 L 252.339 3.884 L 254.238 3.856 Z  M 254.238 21.317 L 253.331 21.345 L 252.452 21.402 L 251.573 21.487 L 250.723 21.629 L 249.901 21.827 L 249.079 22.026 L 248.285 22.281 L 247.52 22.593 L 246.783 22.933 L 246.074 23.301 L 245.394 23.698 L 244.714 24.123 L 244.062 24.577 L 243.466 25.087 L 242.871 25.597 L 242.304 26.164 L 241.765 26.76 L 241.255 27.383 L 240.802 28.007 L 240.348 28.687 L 239.923 29.396 L 239.554 30.133 L 239.214 30.87 L 238.903 31.664 L 238.619 32.457 L 238.364 33.308 L 238.165 34.158 L 237.995 35.008 L 237.854 35.915 L 237.769 36.823 L 237.712 37.73 L 237.684 38.693 L 237.712 39.629 L 237.769 40.564 L 237.854 41.471 L 237.995 42.378 L 238.165 43.229 L 238.364 44.079 L 238.619 44.901 L 238.903 45.723 L 239.214 46.517 L 239.554 47.254 L 239.923 47.991 L 240.348 48.7 L 240.802 49.352 L 241.255 50.004 L 241.765 50.627 L 242.304 51.223 L 242.871 51.789 L 243.466 52.3 L 244.062 52.81 L 244.714 53.264 L 245.394 53.689 L 246.074 54.086 L 246.783 54.454 L 247.52 54.794 L 248.285 55.078 L 249.079 55.361 L 249.901 55.56 L 250.723 55.758 L 251.573 55.871 L 252.452 55.985 L 253.331 56.041 L 254.238 56.07 L 255.145 56.041 L 256.024 55.985 L 256.903 55.871 L 257.753 55.758 L 258.575 55.56 L 259.397 55.361 L 260.162 55.078 L 260.956 54.794 L 261.693 54.454 L 262.43 54.086 L 263.11 53.689 L 263.791 53.264 L 264.414 52.81 L 265.038 52.3 L 265.633 51.789 L 266.2 51.223 L 266.739 50.627 L 267.249 50.004 L 267.703 49.352 L 268.156 48.7 L 268.553 47.991 L 268.95 47.254 L 269.29 46.517 L 269.602 45.723 L 269.885 44.901 L 270.14 44.079 L 270.339 43.229 L 270.509 42.378 L 270.651 41.471 L 270.736 40.564 L 270.792 39.629 L 270.821 38.693 L 270.792 37.73 L 270.736 36.823 L 270.651 35.915 L 270.509 35.008 L 270.339 34.158 L 270.14 33.308 L 269.885 32.457 L 269.602 31.664 L 269.29 30.87 L 268.95 30.133 L 268.553 29.396 L 268.156 28.687 L 267.703 28.007 L 267.249 27.383 L 266.739 26.76 L 266.2 26.164 L 265.633 25.597 L 265.038 25.087 L 264.414 24.577 L 263.791 24.123 L 263.11 23.698 L 262.43 23.301 L 261.693 22.933 L 260.956 22.593 L 260.162 22.281 L 259.397 22.026 L 258.575 21.827 L 257.753 21.629 L 256.903 21.487 L 256.024 21.402 L 255.145 21.345 L 254.238 21.317 Z " fill-rule="evenodd" fill="rgb(0,0,0)"/><rect x="218.72" y="3.827" width="71.093" height="69.761" transform="matrix(1,0,0,1,0,0)" fill="none"/></g><g><path d=" M 347.554 72.298 L 296.956 72.298 L 296.956 5.117 L 315.211 5.117 L 315.211 55.489 L 347.554 55.489 L 347.554 72.298 Z " fill-rule="evenodd" fill="rgb(0,0,0)"/><rect x="296.956" y="5.089" width="50.627" height="67.238" transform="matrix(1,0,0,1,0,0)" fill="none"/></g><g><path d=" M 380.748 46.871 L 380.748 72.298 L 362.493 72.298 L 362.493 47.098 L 337.151 5.117 L 358.099 5.117 L 371.677 30.487 L 385.199 5.117 L 405.495 5.117 L 380.748 46.871 Z " fill-rule="evenodd" fill="rgb(0,0,0)"/><rect x="337.151" y="5.089" width="68.4" height="67.238" transform="matrix(1,0,0,1,0,0)" fill="none"/></g><g><path d=" M 463.463 21.898 L 444.358 21.898 L 444.358 72.298 L 426.131 72.298 L 426.131 21.898 L 407.025 21.898 L 407.025 5.117 L 463.463 5.117 L 463.463 21.898 Z " fill-rule="evenodd" fill="rgb(0,0,0)"/><rect x="406.997" y="5.089" width="56.494" height="67.238" transform="matrix(1,0,0,1,0,0)" fill="none"/></g><g><path d=" M 487.416 72.298 L 469.161 72.298 L 469.161 5.117 L 487.416 5.117 L 487.416 72.298 Z " fill-rule="evenodd" fill="rgb(0,0,0)"/><rect x="469.161" y="5.089" width="18.283" height="67.238" transform="matrix(1,0,0,1,0,0)" fill="none"/></g><g><path d=" M 535.775 38.435 L 557.035 72.281 L 536.399 72.281 L 524.635 52.353 L 512.928 72.281 L 492.433 72.281 L 513.693 38.492 L 492.433 5.1 L 513.069 5.1 L 524.833 24.971 L 536.54 5.1 L 557.035 5.1 L 535.775 38.435 Z " fill-rule="evenodd" fill="rgb(0,0,0)"/><rect x="492.433" y="5.072" width="64.658" height="67.238" transform="matrix(1,0,0,1,0,0)" fill="none"/></g><clipPath id="_clipPath_xQjl81j0aXELwot6TrIPTyKMjZCRgMdC"><rect x="0" y="0" width="72.553" height="79.803" transform="matrix(1,0,0,1,0,0)" fill="rgb(255,255,255)"/></clipPath><g clip-path="url(#_clipPath_xQjl81j0aXELwot6TrIPTyKMjZCRgMdC)"><g><g><path d=" M 68.549 15.212 L 60.755 15.212 L 56.858 21.963 L 60.755 28.712 L 68.549 28.712 L 72.446 21.963 L 68.549 15.212 L 68.549 15.212 Z " fill="rgb(0,61,87)"/><path d=" M 52.519 7.382 L 45.894 7.382 L 42.581 13.119 L 45.894 18.857 L 52.519 18.857 L 55.832 13.119 L 52.519 7.382 L 52.519 7.382 Z " fill="rgb(0,61,87)"/><path d=" M 52.261 24.684 L 45.636 24.684 L 42.323 30.421 L 45.636 36.159 L 52.261 36.159 L 55.573 30.421 L 52.261 24.684 L 52.261 24.684 Z " fill="rgb(236,96,45)"/><path d=" M 52.261 41.7 L 45.636 41.7 L 42.323 47.439 L 45.636 53.176 L 52.261 53.176 L 55.573 47.439 L 52.261 41.7 L 52.261 41.7 Z " fill="rgb(236,96,45)"/><path d=" M 37.623 49.875 L 30.998 49.875 L 27.684 55.613 L 30.998 61.35 L 37.623 61.35 L 40.935 55.613 L 37.623 49.875 L 37.623 49.875 Z " fill="rgb(236,96,45)"/><path d=" M 23.209 58.795 L 16.584 58.795 L 13.272 64.533 L 16.584 70.271 L 23.209 70.271 L 26.522 64.533 L 23.209 58.795 L 23.209 58.795 Z " fill="rgb(236,96,45)"/><path d=" M 32.33 0 L 29.498 4.904 L 32.33 9.811 L 37.994 9.811 L 40.826 4.904 L 37.994 0 L 32.33 0 L 32.33 0 Z " fill="rgb(0,61,87)"/><path d=" M 37.072 17.027 L 31.408 17.027 L 28.574 21.932 L 31.408 26.838 L 37.072 26.838 L 39.905 21.932 L 37.072 17.027 L 37.072 17.027 Z " fill="rgb(236,96,45)"/><path d=" M 37.044 34.12 L 31.38 34.12 L 28.547 39.027 L 31.38 43.932 L 37.044 43.932 L 39.877 39.027 L 37.044 34.12 L 37.044 34.12 Z " fill="rgb(64,21,5)"/><path d=" M 22.416 42.537 L 16.751 42.537 L 13.918 47.443 L 16.751 52.349 L 22.416 52.349 L 25.249 47.443 L 22.416 42.537 L 22.416 42.537 Z " fill="rgb(64,21,5)"/><path d=" M 8.497 51.067 L 2.833 51.067 L 0 55.973 L 2.833 60.878 L 8.497 60.878 L 11.33 55.973 L 8.497 51.067 L 8.497 51.067 Z " fill="rgb(64,21,5)"/><path d=" M 22.987 9.519 L 18.455 9.519 L 16.188 13.444 L 18.455 17.369 L 22.987 17.369 L 25.252 13.444 L 22.987 9.519 L 22.987 9.519 Z " fill="rgb(236,96,45)"/><path d=" M 22.511 25.563 L 17.276 25.563 L 14.66 30.097 L 17.276 34.629 L 22.511 34.629 L 25.128 30.097 L 22.511 25.563 L 22.511 25.563 Z " fill="rgb(64,21,5)"/><path d=" M 8.051 35.07 L 3.519 35.07 L 1.253 38.994 L 3.519 42.919 L 8.051 42.919 L 10.317 38.994 L 8.051 35.07 L 8.051 35.07 Z " fill="rgb(64,21,5)"/><path d=" M 8.808 18.851 L 4.277 18.851 L 2.011 22.776 L 4.277 26.701 L 8.808 26.701 L 11.074 22.776 L 8.808 18.851 L 8.808 18.851 Z " fill="rgb(64,21,5)"/><path d=" M 68.442 32.302 L 60.648 32.302 L 56.75 39.052 L 60.648 45.801 L 68.442 45.801 L 72.339 39.052 L 68.442 32.302 L 68.442 32.302 Z " fill="rgb(236,96,45)"/><path d=" M 68.655 49.276 L 60.862 49.276 L 56.965 56.027 L 60.862 62.776 L 68.655 62.776 L 72.553 56.027 L 68.655 49.276 L 68.655 49.276 Z " fill="rgb(0,61,87)"/><path d=" M 53.809 57.79 L 46.015 57.79 L 42.117 64.541 L 46.015 71.29 L 53.809 71.29 L 57.706 64.541 L 53.809 57.79 L 53.809 57.79 Z " fill="rgb(0,61,87)"/><path d=" M 38.962 66.303 L 31.168 66.303 L 27.271 73.054 L 31.168 79.803 L 38.962 79.803 L 42.86 73.054 L 38.962 66.303 L 38.962 66.303 Z " fill="rgb(0,61,87)"/></g></g></g><path d=" M 616.707 5.072 L 616.707 49.804 L 611.562 49.804 L 611.562 10.823 L 595.97 44.851 L 590.57 44.851 L 575.01 11.078 L 575.01 49.804 L 569.866 49.804 L 569.866 5.072 L 577.662 5.072 L 593.286 38.876 L 608.878 5.072 L 616.707 5.072 Z  M 649.042 5.072 L 667.414 49.804 L 661.918 49.804 L 656.838 37.343 L 634.695 37.343 L 629.647 49.804 L 624.311 49.804 L 642.683 5.072 L 649.042 5.072 Z  M 645.783 10.152 L 636.676 32.486 L 654.889 32.486 L 645.783 10.152 Z  M 691.921 31.815 L 680.163 31.815 L 680.163 49.804 L 675.018 49.804 L 675.018 5.072 L 691.921 5.072 L 691.921 5.072 Q 695.691 5.072 698.631 5.982 L 698.631 5.982 L 698.631 5.982 Q 701.57 6.893 703.599 8.618 L 703.599 8.618 L 703.599 8.618 Q 705.628 10.344 706.682 12.836 L 706.682 12.836 L 706.682 12.836 Q 707.737 15.328 707.737 18.459 L 707.737 18.459 L 707.737 18.459 Q 707.737 21.591 706.682 24.067 L 706.682 24.067 L 706.682 24.067 Q 705.628 26.543 703.599 28.268 L 703.599 28.268 L 703.599 28.268 Q 701.57 29.994 698.631 30.904 L 698.631 30.904 L 698.631 30.904 Q 695.691 31.815 691.921 31.815 L 691.921 31.815 Z  M 691.761 9.928 L 680.163 9.928 L 680.163 26.99 L 691.761 26.99 L 691.761 26.99 Q 696.969 26.99 699.685 24.866 L 699.685 24.866 L 699.685 24.866 Q 702.401 22.741 702.401 18.459 L 702.401 18.459 L 702.401 18.459 Q 702.401 14.178 699.685 12.053 L 699.685 12.053 L 699.685 12.053 Q 696.969 9.928 691.761 9.928 L 691.761 9.928 Z  M 734.353 31.815 L 722.594 31.815 L 722.594 49.804 L 717.45 49.804 L 717.45 5.072 L 734.353 5.072 L 734.353 5.072 Q 738.123 5.072 741.062 5.982 L 741.062 5.982 L 741.062 5.982 Q 744.002 6.893 746.031 8.618 L 746.031 8.618 L 746.031 8.618 Q 748.06 10.344 749.114 12.836 L 749.114 12.836 L 749.114 12.836 Q 750.169 15.328 750.169 18.459 L 750.169 18.459 L 750.169 18.459 Q 750.169 21.591 749.114 24.067 L 749.114 24.067 L 749.114 24.067 Q 748.06 26.543 746.031 28.268 L 746.031 28.268 L 746.031 28.268 Q 744.002 29.994 741.062 30.904 L 741.062 30.904 L 741.062 30.904 Q 738.123 31.815 734.353 31.815 L 734.353 31.815 Z  M 734.193 9.928 L 722.594 9.928 L 722.594 26.99 L 734.193 26.99 L 734.193 26.99 Q 739.401 26.99 742.117 24.866 L 742.117 24.866 L 742.117 24.866 Q 744.833 22.741 744.833 18.459 L 744.833 18.459 L 744.833 18.459 Q 744.833 14.178 742.117 12.053 L 742.117 12.053 L 742.117 12.053 Q 739.401 9.928 734.193 9.928 L 734.193 9.928 Z " fill="rgb(0,0,0)"/></g></svg>