<?xml version="1.0" encoding="UTF-8" standalone="no"?><!-- Generator: Gravit.io --><svg xmlns="http://www.w3.org/2000/svg" xmlns:xlink="http://www.w3.org/1999/xlink" style="isolation:isolate" viewBox="0 0 765.28 841.76" width="765.28pt" height="841.76pt"><defs><clipPath id="_clipPath_jiopfRZwefiWCnBKEEJxiNRcABjaFnPK"><rect width="765.28" height="841.76"/></clipPath></defs><g clip-path="url(#_clipPath_jiopfRZwefiWCnBKEEJxiNRcABjaFnPK)"><g><path d=" M 723.05 160.45 L 640.84 160.45 L 599.73 231.66 L 640.84 302.85 L 723.05 302.85 L 764.16 231.66 L 723.05 160.45 L 723.05 160.45 Z " fill="rgb(0,61,87)"/><path d=" M 553.97 77.86 L 484.09 77.86 L 449.14 138.38 L 484.09 198.9 L 553.97 198.9 L 588.91 138.38 L 553.97 77.86 L 553.97 77.86 Z " fill="rgb(0,61,87)"/><path d=" M 551.24 260.36 L 481.36 260.36 L 446.42 320.88 L 481.36 381.4 L 551.24 381.4 L 586.18 320.88 L 551.24 260.36 L 551.24 260.36 Z " fill="rgb(236,96,45)"/><path d=" M 551.24 439.85 L 481.36 439.85 L 446.42 500.38 L 481.36 560.9 L 551.24 560.9 L 586.18 500.38 L 551.24 439.85 L 551.24 439.85 Z " fill="rgb(236,96,45)"/><path d=" M 396.84 526.08 L 326.96 526.08 L 292.01 586.6 L 326.96 647.12 L 396.84 647.12 L 431.78 586.6 L 396.84 526.08 L 396.84 526.08 Z " fill="rgb(236,96,45)"/><path d=" M 244.81 620.17 L 174.93 620.17 L 139.99 680.69 L 174.93 741.21 L 244.81 741.21 L 279.75 680.69 L 244.81 620.17 L 244.81 620.17 Z " fill="rgb(236,96,45)"/><path d=" M 341.01 0 L 311.14 51.73 L 341.01 103.49 L 400.76 103.49 L 430.63 51.73 L 400.76 0 L 341.01 0 L 341.01 0 Z " fill="rgb(0,61,87)"/><path d=" M 391.03 179.6 L 331.29 179.6 L 301.4 231.34 L 331.29 283.09 L 391.03 283.09 L 420.91 231.34 L 391.03 179.6 L 391.03 179.6 Z " fill="rgb(236,96,45)"/><path d=" M 390.74 359.9 L 330.99 359.9 L 301.11 411.65 L 330.99 463.39 L 390.74 463.39 L 420.62 411.65 L 390.74 359.9 L 390.74 359.9 Z " fill="rgb(64,21,5)"/><path d=" M 236.44 448.68 L 176.69 448.68 L 146.81 500.43 L 176.69 552.17 L 236.44 552.17 L 266.32 500.43 L 236.44 448.68 L 236.44 448.68 Z " fill="rgb(64,21,5)"/><path d=" M 89.63 538.65 L 29.88 538.65 L 0 590.4 L 29.88 642.14 L 89.63 642.14 L 119.51 590.4 L 89.63 538.65 L 89.63 538.65 Z " fill="rgb(64,21,5)"/><path d=" M 242.46 100.41 L 194.66 100.41 L 170.75 141.81 L 194.66 183.21 L 242.46 183.21 L 266.36 141.81 L 242.46 100.41 L 242.46 100.41 Z " fill="rgb(236,96,45)"/><path d=" M 237.44 269.64 L 182.23 269.64 L 154.63 317.46 L 182.23 365.26 L 237.44 365.26 L 265.05 317.46 L 237.44 269.64 L 237.44 269.64 Z " fill="rgb(64,21,5)"/><path d=" M 84.92 369.92 L 37.12 369.92 L 13.22 411.31 L 37.12 452.71 L 84.92 452.71 L 108.82 411.31 L 84.92 369.92 L 84.92 369.92 Z " fill="rgb(64,21,5)"/><path d=" M 92.91 198.84 L 45.11 198.84 L 21.21 240.24 L 45.11 281.64 L 92.91 281.64 L 116.81 240.24 L 92.91 198.84 L 92.91 198.84 Z " fill="rgb(64,21,5)"/><path d=" M 721.92 340.72 L 639.71 340.72 L 598.6 411.92 L 639.71 483.11 L 721.92 483.11 L 763.03 411.92 L 721.92 340.72 L 721.92 340.72 Z " fill="rgb(236,96,45)"/><path d=" M 724.17 519.76 L 641.97 519.76 L 600.86 590.97 L 641.97 662.16 L 724.17 662.16 L 765.28 590.97 L 724.17 519.76 L 724.17 519.76 Z " fill="rgb(0,61,87)"/><path d=" M 567.57 609.56 L 485.36 609.56 L 444.25 680.77 L 485.36 751.96 L 567.57 751.96 L 608.68 680.77 L 567.57 609.56 L 567.57 609.56 Z " fill="rgb(0,61,87)"/><path d=" M 410.97 699.36 L 328.76 699.36 L 287.65 770.57 L 328.76 841.76 L 410.97 841.76 L 452.08 770.57 L 410.97 699.36 L 410.97 699.36 Z " fill="rgb(0,61,87)"/></g></g></svg>