<svg width="577" height="527" viewBox="0 0 577 527" fill="none" xmlns="http://www.w3.org/2000/svg">
<path d="M280.414 179.542H360.366L400.343 110.3L360.366 41.0582H280.414L240.437 110.3L280.414 179.542Z" stroke="#9D9D9D" stroke-miterlimit="10"/>
<path d="M160.483 110.3L120.506 179.543L160.483 248.784H240.437L280.413 179.543L240.435 110.3H160.483Z" stroke="#9D9D9D" stroke-miterlimit="10"/>
<path d="M280.414 318.026V318.027H360.366V318.026L400.343 248.784L360.366 179.543H280.414L240.437 248.784L280.414 318.026Z" stroke="#9D9D9D" stroke-miterlimit="10"/>
<path d="M40.5545 456.51L40.5531 456.511H120.506V456.51L160.484 387.269L120.506 318.027H40.5531L0.577148 387.267L40.5545 456.51Z" stroke="#9D9D9D" stroke-miterlimit="10"/>
<path d="M160.483 248.784L120.506 318.026L160.483 387.267H240.437L280.413 318.027L240.435 248.784H160.483Z" stroke="#9D9D9D" stroke-miterlimit="10"/>
<path d="M280.414 456.51V456.511H360.366V456.51L400.343 387.269L360.366 318.027H280.414L240.437 387.267L280.414 456.51Z" stroke="#9D9D9D" stroke-miterlimit="10"/>
<path d="M160.483 387.269L120.506 456.51L160.483 525.751H240.437L280.413 456.511L240.435 387.269L240.437 387.267L160.483 387.269Z" stroke="#9D9D9D" stroke-miterlimit="10"/>
<path d="M255.94 0L273.17 29.8463C276.836 36.197 280.116 41.7253 280.222 41.7253H293.745H346.649C353.984 41.7253 362.984 46.9228 366.649 53.2708L392.906 98.75C396.576 105.103 396.576 115.496 392.906 121.845L366.264 167.997C362.594 174.347 362.594 184.738 366.264 191.092L392.906 237.234C396.576 243.589 396.576 253.981 392.906 260.329L366.649 305.814C362.984 312.162 353.984 317.359 346.649 317.359H293.361C286.026 317.359 277.026 322.558 273.361 328.909L246.334 375.72C242.669 382.073 242.669 392.464 246.334 398.814L273.17 445.296C276.836 451.646 286.026 457.18 293.361 457.18H346.649C353.984 457.18 362.984 462.381 366.649 468.729L393.101 514.543C396.765 520.892 405.956 526.422 413.292 526.422H467.348C474.682 526.422 483.684 521.227 487.348 514.879L513.99 468.729C517.656 462.381 526.656 457.185 533.99 457.185H576.734V0.00909424H255.94V0Z" fill="url(#paint0_linear_6_3)"/>
<defs>
<linearGradient id="paint0_linear_6_3" x1="123.653" y1="75.6799" x2="637.057" y2="75.6799" gradientUnits="userSpaceOnUse">
<stop stop-color="#FFA8E1"/>
<stop offset="1" stop-color="#FFE261"/>
</linearGradient>
</defs>
</svg>
