<?xml version="1.0" encoding="UTF-8" standalone="no"?><!-- Generator: Gravit.io --><svg xmlns="http://www.w3.org/2000/svg" xmlns:xlink="http://www.w3.org/1999/xlink" style="isolation:isolate" viewBox="-0.057 0 2359.897 1823.6" width="2359.897pt" height="1823.6pt"><defs><clipPath id="_clipPath_VrB8MItNpqTFn1tfy7YchC6o5ak2uYcM"><rect x="-0.057" y="0" width="2359.897" height="1823.6"/></clipPath></defs><g clip-path="url(#_clipPath_VrB8MItNpqTFn1tfy7YchC6o5ak2uYcM)"><g><path d=" M 1520.35 160.45 L 1438.14 160.45 L 1397.03 231.66 L 1438.14 302.85 L 1520.35 302.85 L 1561.46 231.66 L 1520.35 160.45 L 1520.35 160.45 Z " fill="rgb(0,61,87)"/><path d=" M 1351.27 77.86 L 1281.39 77.86 L 1246.44 138.38 L 1281.39 198.9 L 1351.27 198.9 L 1386.21 138.38 L 1351.27 77.86 L 1351.27 77.86 Z " fill="rgb(0,61,87)"/><path d=" M 1348.54 260.36 L 1278.66 260.36 L 1243.72 320.88 L 1278.66 381.4 L 1348.54 381.4 L 1383.48 320.88 L 1348.54 260.36 L 1348.54 260.36 Z " fill="rgb(236,96,45)"/><path d=" M 1348.54 439.85 L 1278.66 439.85 L 1243.72 500.38 L 1278.66 560.9 L 1348.54 560.9 L 1383.48 500.38 L 1348.54 439.85 L 1348.54 439.85 Z " fill="rgb(236,96,45)"/><path d=" M 1194.14 526.08 L 1124.26 526.08 L 1089.31 586.6 L 1124.26 647.12 L 1194.14 647.12 L 1229.08 586.6 L 1194.14 526.08 L 1194.14 526.08 Z " fill="rgb(236,96,45)"/><path d=" M 1042.11 620.17 L 972.23 620.17 L 937.29 680.69 L 972.23 741.21 L 1042.11 741.21 L 1077.05 680.69 L 1042.11 620.17 L 1042.11 620.17 Z " fill="rgb(236,96,45)"/><path d=" M 1138.31 0 L 1108.44 51.73 L 1138.31 103.49 L 1198.06 103.49 L 1227.93 51.73 L 1198.06 0 L 1138.31 0 L 1138.31 0 Z " fill="rgb(0,61,87)"/><path d=" M 1188.33 179.6 L 1128.59 179.6 L 1098.7 231.34 L 1128.59 283.09 L 1188.33 283.09 L 1218.21 231.34 L 1188.33 179.6 L 1188.33 179.6 Z " fill="rgb(236,96,45)"/><path d=" M 1188.04 359.9 L 1128.29 359.9 L 1098.41 411.65 L 1128.29 463.39 L 1188.04 463.39 L 1217.92 411.65 L 1188.04 359.9 L 1188.04 359.9 Z " fill="rgb(64,21,5)"/><path d=" M 1033.74 448.68 L 973.99 448.68 L 944.11 500.43 L 973.99 552.17 L 1033.74 552.17 L 1063.62 500.43 L 1033.74 448.68 L 1033.74 448.68 Z " fill="rgb(64,21,5)"/><path d=" M 886.93 538.65 L 827.18 538.65 L 797.3 590.4 L 827.18 642.14 L 886.93 642.14 L 916.81 590.4 L 886.93 538.65 L 886.93 538.65 Z " fill="rgb(64,21,5)"/><path d=" M 1039.76 100.41 L 991.96 100.41 L 968.05 141.81 L 991.96 183.21 L 1039.76 183.21 L 1063.66 141.81 L 1039.76 100.41 L 1039.76 100.41 Z " fill="rgb(236,96,45)"/><path d=" M 1034.74 269.64 L 979.53 269.64 L 951.93 317.46 L 979.53 365.26 L 1034.74 365.26 L 1062.35 317.46 L 1034.74 269.64 L 1034.74 269.64 Z " fill="rgb(64,21,5)"/><path d=" M 882.22 369.92 L 834.42 369.92 L 810.52 411.31 L 834.42 452.71 L 882.22 452.71 L 906.12 411.31 L 882.22 369.92 L 882.22 369.92 Z " fill="rgb(64,21,5)"/><path d=" M 890.21 198.84 L 842.41 198.84 L 818.51 240.24 L 842.41 281.64 L 890.21 281.64 L 914.11 240.24 L 890.21 198.84 L 890.21 198.84 Z " fill="rgb(64,21,5)"/><path d=" M 1519.22 340.72 L 1437.01 340.72 L 1395.9 411.92 L 1437.01 483.11 L 1519.22 483.11 L 1560.33 411.92 L 1519.22 340.72 L 1519.22 340.72 Z " fill="rgb(236,96,45)"/><path d=" M 1521.47 519.76 L 1439.27 519.76 L 1398.16 590.97 L 1439.27 662.16 L 1521.47 662.16 L 1562.58 590.97 L 1521.47 519.76 L 1521.47 519.76 Z " fill="rgb(0,61,87)"/><path d=" M 1364.87 609.56 L 1282.66 609.56 L 1241.55 680.77 L 1282.66 751.96 L 1364.87 751.96 L 1405.98 680.77 L 1364.87 609.56 L 1364.87 609.56 Z " fill="rgb(0,61,87)"/><path d=" M 1208.27 699.36 L 1126.06 699.36 L 1084.95 770.57 L 1126.06 841.76 L 1208.27 841.76 L 1249.38 770.57 L 1208.27 699.36 L 1208.27 699.36 Z " fill="rgb(0,61,87)"/><path d=" M 913.75 1823.6 L 886.6 1823.6 L 886.6 1617.87 L 804.31 1797.46 L 775.81 1797.46 L 693.69 1619.22 L 693.69 1823.6 L 666.52 1823.6 L 666.52 1587.52 L 707.66 1587.52 L 790.13 1765.93 L 872.44 1587.52 L 913.75 1587.52 L 913.75 1823.6 Z " fill="rgb(64,21,5)"/><path d=" M 1206.33 1823.6 L 1177.33 1823.6 L 1150.52 1757.83 L 1033.65 1757.83 L 1007.01 1823.6 L 978.85 1823.6 L 1075.85 1587.52 L 1109.41 1587.52 L 1206.33 1823.6 Z  M 1044.11 1732.2 L 1140.23 1732.2 L 1092.17 1614.33 L 1044.11 1732.2 Z " fill="rgb(64,21,5)"/><path d=" M 1298.57 1728.66 L 1298.57 1823.6 L 1271.42 1823.6 L 1271.42 1587.52 L 1360.63 1587.52 Q 1380.52 1587.52 1396.04 1592.32 C 1405.64 1595.121 1414.566 1599.855 1422.27 1606.23 C 1429.372 1612.272 1434.941 1619.91 1438.52 1628.52 C 1442.352 1637.938 1444.243 1648.033 1444.08 1658.2 Q 1444.08 1674.73 1438.52 1687.8 C 1434.913 1696.365 1429.339 1703.96 1422.25 1709.97 C 1414.546 1716.345 1405.62 1721.079 1396.02 1723.88 Q 1380.51 1728.7 1360.61 1728.69 L 1298.57 1728.66 Z  M 1298.57 1613.15 L 1298.57 1703.15 L 1359.79 1703.15 Q 1387.27 1703.15 1401.61 1691.93 Q 1415.95 1680.71 1415.94 1658.12 Q 1415.94 1635.53 1401.61 1624.31 Q 1387.28 1613.09 1359.79 1613.1 L 1298.57 1613.15 Z " fill="rgb(64,21,5)"/><path d=" M 1547.81 1728.66 L 1547.81 1823.6 L 1520.66 1823.6 L 1520.66 1587.52 L 1609.87 1587.52 Q 1629.76 1587.52 1645.28 1592.32 C 1654.876 1595.124 1663.798 1599.857 1671.5 1606.23 C 1678.611 1612.258 1684.19 1619.887 1687.78 1628.49 C 1691.612 1637.908 1693.503 1648.003 1693.34 1658.17 Q 1693.34 1674.7 1687.78 1687.77 C 1684.173 1696.338 1678.595 1703.933 1671.5 1709.94 C 1663.798 1716.313 1654.876 1721.046 1645.28 1723.85 Q 1629.77 1728.67 1609.87 1728.66 L 1547.81 1728.66 Z  M 1547.81 1613.15 L 1547.81 1703.15 L 1609.02 1703.15 Q 1636.51 1703.15 1650.85 1691.93 Q 1665.19 1680.71 1665.18 1658.12 Q 1665.18 1635.53 1650.85 1624.31 Q 1636.52 1613.09 1609.02 1613.1 L 1547.81 1613.15 Z " fill="rgb(64,21,5)"/><path d=" M 801.79 1431.68 C 771.79 1431.35 735.13 1418.5 706.33 1387.54 C 677.68 1356.72 667.02 1319.35 670.58 1278.18 C 675.29 1223.75 702.21 1183.68 752.88 1161.97 C 811.08 1136.97 890.8 1149.16 932 1207.78 C 952.55 1237.01 959.74 1269.93 956.62 1304.98 C 952.83 1347.52 934.13 1382.22 898.62 1406.8 C 873.02 1424.52 844.19 1431.83 801.79 1431.68 Z  M 880.27 1291.06 C 880.27 1288.82 880.43 1286.56 880.27 1284.33 C 878.27 1259.33 867.96 1239.06 844.75 1227.91 C 820.75 1216.4 796.55 1217.4 774.38 1232.72 C 752.21 1248.04 745.76 1270.88 746.85 1296.51 C 748.7 1339.85 785.66 1368.58 828.03 1359.81 C 860.46 1353.08 880.36 1326.99 880.27 1291.06 Z " fill="rgb(0,61,87)"/><path d=" M 1248.74 1427.15 L 1046.98 1427.15 L 1046.98 1159.03 L 1119.79 1159.03 L 1119.79 1360.21 L 1248.74 1360.21 L 1248.74 1427.15 Z " fill="rgb(0,61,87)"/><path d=" M 1270.89 1158.2 L 1298.68 1158.2 C 1315.17 1158.2 1331.68 1158.42 1348.16 1158.07 C 1353.16 1157.97 1355.64 1159.77 1357.89 1164.07 C 1373.89 1194.39 1390.15 1224.58 1406.33 1254.81 C 1407.06 1256.17 1407.82 1257.52 1409.16 1259.95 C 1410.71 1257.31 1411.93 1255.39 1413 1253.39 C 1428.92 1223.54 1444.9 1193.71 1460.65 1163.77 C 1462.78 1159.77 1465.13 1158.05 1469.87 1158.11 C 1492.61 1158.38 1515.35 1158.23 1538.09 1158.25 C 1540.01 1158.25 1541.93 1158.44 1544.76 1158.59 C 1543.22 1161.38 1542.14 1163.47 1540.95 1165.49 Q 1494.95 1243.09 1449.05 1320.72 C 1446.987 1324.321 1445.856 1328.381 1445.76 1332.53 C 1445.49 1361.73 1445.61 1390.93 1445.61 1420.14 L 1445.61 1427.76 L 1372.44 1427.76 L 1372.44 1419.76 C 1372.44 1391.23 1372.6 1362.69 1372.28 1334.16 C 1372.204 1329.569 1370.965 1325.072 1368.68 1321.09 Q 1321.86 1242.82 1274.59 1164.82 C 1273.52 1163.06 1272.63 1161.3 1270.89 1158.2 Z " fill="rgb(0,61,87)"/><path d=" M 1765.39 1427.64 L 1691.81 1427.64 L 1691.81 1225.52 L 1615.15 1225.52 L 1615.15 1157.68 L 1841.15 1157.68 L 1841.15 1224.85 L 1765.39 1224.85 L 1765.39 1427.64 Z " fill="rgb(0,61,87)"/><path d=" M 2012.57 1432.09 L 1940.35 1432.09 L 1940.35 1163.86 L 2012.57 1163.86 L 2012.57 1432.09 Z " fill="rgb(0,61,87)"/><path d=" M 2096.88 1427.63 L 2123.01 1386.22 C 2142.01 1356.08 2160.9 1325.87 2180.09 1295.85 C 2182.83 1291.57 2182.64 1288.69 2179.93 1284.48 Q 2140.15 1222.8 2100.82 1160.83 C 2099.66 1159.01 2098.7 1157.05 2097.13 1154.22 C 2105.41 1154.22 2112.75 1154.22 2120.13 1154.22 C 2138.41 1154.22 2156.7 1154.47 2174.99 1154.22 C 2179.41 1154.22 2181.81 1155.56 2183.99 1159.36 C 2198.53 1184.27 2213.34 1209.03 2228.64 1234.8 C 2230.47 1231.8 2231.96 1229.44 2233.39 1227.02 C 2246.72 1204.52 2260.14 1182.08 2273.26 1159.46 C 2275.48 1155.63 2277.84 1154.18 2282.26 1154.21 C 2305.74 1154.37 2329.26 1154.21 2352.7 1154.12 L 2359.84 1154.12 C 2357.77 1157.45 2356.42 1159.67 2355.02 1161.86 Q 2315.75 1223.47 2276.37 1285.01 C 2273.93 1288.81 2273.95 1291.38 2276.37 1295.18 Q 2316.19 1358.03 2355.65 1421.11 C 2356.8 1422.94 2357.82 1424.86 2359.4 1427.61 L 2312.64 1427.61 C 2302.03 1427.61 2291.41 1427.43 2280.81 1427.7 C 2276.91 1427.8 2274.81 1426.44 2272.81 1423.12 C 2258.13 1398.03 2243.25 1373.05 2227.95 1347.23 C 2226.24 1349.94 2224.79 1352.11 2223.47 1354.35 C 2210.05 1377.05 2196.55 1399.71 2183.35 1422.55 C 2181.12 1426.4 2178.75 1427.76 2174.35 1427.72 C 2150.65 1427.48 2126.94 1427.61 2103.23 1427.61 L 2096.88 1427.63 Z " fill="rgb(0,61,87)"/><path d=" M 374.32 1162.74 L 580.24 1162.74 L 580.24 1226.52 L 446.24 1226.52 L 446.24 1261.63 L 570.81 1261.63 L 570.81 1325.28 L 446.24 1325.28 L 446.24 1362.87 L 580.13 1362.87 L 580.13 1427.11 L 374.32 1427.11 L 374.32 1162.74 Z " fill="rgb(0,61,87)"/><path d=" M 252.79 1179.4 C 234.65 1198.28 217.44 1216.21 199.96 1234.4 C 189.11 1224.8 177.57 1217.63 163.72 1214.95 C 114.72 1205.44 76.79 1238.43 78.13 1289.55 C 78.85 1317.12 87.64 1340.7 112.62 1355.55 C 136.47 1369.69 174.46 1367.09 194.25 1350.3 C 202.25 1343.48 207.25 1334.73 210.25 1323.38 L 145.09 1323.38 L 145.09 1267.73 L 284.39 1267.73 C 296.39 1349.09 252.59 1417.73 175.12 1430.88 C 127.18 1439.02 82.97 1428.5 45.79 1395.83 C 20.15 1373.31 6.06 1344.11 1.62 1310.42 C -3.61 1270.68 3 1233.24 27.06 1200.51 C 53.59 1164.42 90.66 1146.4 134.73 1142.8 C 168.26 1140.05 200.73 1144.39 229.92 1162.71 C 238.18 1167.87 245.68 1174.16 252.79 1179.4 Z " fill="rgb(0,61,87)"/></g></g></svg>