<?xml version="1.0" encoding="UTF-8" standalone="no"?>
<svg
   xmlns:dc="http://purl.org/dc/elements/1.1/"
   xmlns:cc="http://creativecommons.org/ns#"
   xmlns:rdf="http://www.w3.org/1999/02/22-rdf-syntax-ns#"
   xmlns:svg="http://www.w3.org/2000/svg"
   xmlns="http://www.w3.org/2000/svg"
   xmlns:sodipodi="http://sodipodi.sourceforge.net/DTD/sodipodi-0.dtd"
   xmlns:inkscape="http://www.inkscape.org/namespaces/inkscape"
   height="24"
   viewBox="0 0 24 24"
   width="24"
   version="1.1"
   id="svg885"
   sodipodi:docname="bus.svg"
   inkscape:version="1.0 (b51213c273, 2020-08-10)">
  <metadata
     id="metadata891">
    <rdf:RDF>
      <cc:Work
         rdf:about="">
        <dc:format>image/svg+xml</dc:format>
        <dc:type
           rdf:resource="http://purl.org/dc/dcmitype/StillImage" />
        <dc:title></dc:title>
      </cc:Work>
    </rdf:RDF>
  </metadata>
  <defs
     id="defs889" />
  <sodipodi:namedview
     pagecolor="#ffffff"
     bordercolor="#666666"
     borderopacity="1"
     objecttolerance="10"
     gridtolerance="10"
     guidetolerance="10"
     inkscape:pageopacity="0"
     inkscape:pageshadow="2"
     inkscape:window-width="1860"
     inkscape:window-height="1016"
     id="namedview887"
     showgrid="false"
     inkscape:zoom="16.732725"
     inkscape:cx="25.168015"
     inkscape:cy="2.1940519"
     inkscape:window-x="60"
     inkscape:window-y="27"
     inkscape:window-maximized="1"
     inkscape:current-layer="svg885" />
  <path
     d="M0 0h24v24H0V0z"
     fill="none"
     id="path881" />
  <circle
     style="fill:#f5b7b7;fill-opacity:1;stroke:none;stroke-width:9.44149"
     id="path893"
     cx="11.996421"
     cy="12.026726"
     r="11.80868" />
  <g
     id="g998">
    <path
       d="M 0,0 H 24 V 24 H 0 Z"
       fill="none"
       id="path984" />
    <path
       d="m 4,16 c 0,0.88 0.39,1.67 1,2.22 V 20 c 0,0.55 0.45,1 1,1 h 1 c 0.55,0 1,-0.45 1,-1 v -1 h 8 v 1 c 0,0.55 0.45,1 1,1 h 1 c 0.55,0 1,-0.45 1,-1 V 18.22 C 19.61,17.67 20,16.88 20,16 V 6 C 20,2.5 16.42,2 12,2 7.58,2 4,2.5 4,6 Z m 3.5,1 C 6.67,17 6,16.33 6,15.5 6,14.67 6.67,14 7.5,14 8.33,14 9,14.67 9,15.5 9,16.33 8.33,17 7.5,17 Z m 9,0 C 15.67,17 15,16.33 15,15.5 15,14.67 15.67,14 16.5,14 17.33,14 18,14.67 18,15.5 18,16.33 17.33,17 16.5,17 Z M 18,11 H 6 V 6 h 12 z"
       id="path986" />
  </g>
</svg>
