<?xml version="1.0" encoding="UTF-8" standalone="no"?>
<svg
   xmlns:dc="http://purl.org/dc/elements/1.1/"
   xmlns:cc="http://creativecommons.org/ns#"
   xmlns:rdf="http://www.w3.org/1999/02/22-rdf-syntax-ns#"
   xmlns:svg="http://www.w3.org/2000/svg"
   xmlns="http://www.w3.org/2000/svg"
   xmlns:sodipodi="http://sodipodi.sourceforge.net/DTD/sodipodi-0.dtd"
   xmlns:inkscape="http://www.inkscape.org/namespaces/inkscape"
   height="24"
   viewBox="0 0 24 24"
   width="24"
   version="1.1"
   id="svg885"
   sodipodi:docname="metro.svg"
   inkscape:version="1.0 (b51213c273, 2020-08-10)">
  <metadata
     id="metadata891">
    <rdf:RDF>
      <cc:Work
         rdf:about="">
        <dc:format>image/svg+xml</dc:format>
        <dc:type
           rdf:resource="http://purl.org/dc/dcmitype/StillImage" />
        <dc:title></dc:title>
      </cc:Work>
    </rdf:RDF>
  </metadata>
  <defs
     id="defs889" />
  <sodipodi:namedview
     pagecolor="#ffffff"
     bordercolor="#666666"
     borderopacity="1"
     objecttolerance="10"
     gridtolerance="10"
     guidetolerance="10"
     inkscape:pageopacity="0"
     inkscape:pageshadow="2"
     inkscape:window-width="1860"
     inkscape:window-height="1016"
     id="namedview887"
     showgrid="false"
     inkscape:zoom="16.732725"
     inkscape:cx="25.168015"
     inkscape:cy="2.1940519"
     inkscape:window-x="60"
     inkscape:window-y="27"
     inkscape:window-maximized="1"
     inkscape:current-layer="svg885" />
  <path
     d="M0 0h24v24H0V0z"
     fill="none"
     id="path881" />
  <circle
     style="fill:#d6d6d6;fill-opacity:1;stroke:none;stroke-width:9.44149"
     id="path893"
     cx="11.996421"
     cy="12.026726"
     r="11.80868" />
  <path
     d="m 11.993779,2.2454318 c -4.0000002,0 -8.0000002,0.5 -8.0000002,4.0000002 v 9.5 c 0,1.93 1.57,3.5 3.5,3.5 l -1.5,1.5 v 0.5 h 2.23 l 2.0000002,-2 h 3.77 l 2,2 h 2 v -0.5 l -1.5,-1.5 c 1.93,0 3.5,-1.57 3.5,-3.5 v -9.5 c 0,-3.5000002 -3.58,-4.0000002 -8,-4.0000002 z M 7.4937788,17.245432 c -0.83,0 -1.5,-0.67 -1.5,-1.5 0,-0.83 0.67,-1.5 1.5,-1.5 0.83,0 1.5,0.67 1.5,1.5 0,0.83 -0.67,1.5 -1.5,1.5 z m 3.5000002,-7 H 5.9937788 v -4 h 5.0000002 z m 2,0 v -4 h 5 v 4 z m 3.5,7 c -0.83,0 -1.5,-0.67 -1.5,-1.5 0,-0.83 0.67,-1.5 1.5,-1.5 0.83,0 1.5,0.67 1.5,1.5 0,0.83 -0.67,1.5 -1.5,1.5 z"
     id="path883" />
</svg>
