<?xml version="1.0" encoding="UTF-8" standalone="no"?><!-- Generator: Gravit.io --><svg xmlns="http://www.w3.org/2000/svg" xmlns:xlink="http://www.w3.org/1999/xlink" style="isolation:isolate" viewBox="0 0 24 24" width="24pt" height="24pt"><defs><clipPath id="_clipPath_r0aHRtOhJrQjdJagefmvoyWJitmz9Fnq"><rect width="24" height="24"/></clipPath></defs><g clip-path="url(#_clipPath_r0aHRtOhJrQjdJagefmvoyWJitmz9Fnq)"><path d=" M 19.2 16.781 C 20.978 14.963 22.17 12.58 22.17 9.858 C 22.17 4.58 17.885 0.295 12.608 0.295 C 7.33 0.295 3.045 4.58 3.045 9.858 C 3.045 12.613 4.134 14.911 6.081 16.844 L 6.081 16.844 L 12.219 23.618 L 19.212 16.781 L 19.2 16.781 Z " fill="rgb(209,209,209)"/><path d=" M 18.593 16.825 C 20.37 15.006 21.563 12.624 21.563 9.901 C 21.563 4.623 17.278 0.338 12 0.338 C 6.722 0.338 2.438 4.623 2.438 9.901 C 2.438 12.657 3.526 14.954 5.474 16.888 L 5.473 16.888 L 11.611 23.662 L 18.605 16.825 L 18.593 16.825 Z " fill="rgb(255,208,91)"/><g><path d=" M 21.91 11.512 L 6.596 18.653 C 6.463 18.716 6.306 18.659 6.244 18.525 L 1.771 8.932 C 1.709 8.799 1.765 8.643 1.899 8.581 L 17.213 1.44 C 17.346 1.377 17.502 1.434 17.565 1.568 L 22.036 11.156 C 22.098 11.289 22.043 11.45 21.91 11.512 Z " fill="rgb(255,255,255)"/><path d=" M 2.872 8.127 L 2.794 11.139 L 2.1 9.65 C 2.092 9.632 2.083 9.615 2.082 9.599 L 2.082 9.599 L 2.102 8.762 C 2.2 8.543 2.377 8.363 2.612 8.253 L 2.874 8.131 L 2.872 8.127 Z " fill="rgb(76,219,196)"/><path d=" M 4.606 7.318 L 4.42 14.624 L 3.704 13.091 L 3.846 7.673 L 4.606 7.318 Z " fill="rgb(255,112,88)"/><path d=" M 6.317 6.52 L 6.021 18.001 C 5.977 17.941 5.939 17.883 5.906 17.812 L 5.305 16.523 L 5.553 6.877 L 6.317 6.52 L 6.317 6.52 Z " fill="rgb(76,219,196)"/><path d=" M 8.051 5.712 L 7.734 18.123 L 7.307 18.322 C 7.196 18.374 7.085 18.403 6.971 18.414 L 7.286 6.068 L 8.051 5.712 L 8.051 5.712 Z " fill="rgb(255,112,88)"/><path d=" M 9.838 4.878 L 9.521 17.289 L 8.756 17.646 L 9.078 5.233 L 9.838 4.878 Z " fill="rgb(76,219,196)"/><path d=" M 11.576 4.068 L 11.259 16.479 L 10.494 16.836 L 10.812 4.424 L 11.576 4.068 Z " fill="rgb(255,112,88)"/><path d=" M 13.31 3.259 L 12.993 15.671 L 12.228 16.027 L 12.545 3.616 L 13.31 3.259 Z " fill="rgb(76,219,196)"/><path d=" M 15.048 2.449 L 14.731 14.86 L 13.962 15.219 L 14.283 2.806 L 15.048 2.449 Z " fill="rgb(255,112,88)"/><path d=" M 16.833 1.682 L 16.518 14.027 L 15.753 14.383 L 16.07 1.972 L 16.497 1.773 C 16.608 1.721 16.723 1.689 16.833 1.682 Z " fill="rgb(76,219,196)"/><path d=" M 17.898 2.283 L 18.502 3.577 L 18.253 13.223 L 17.489 13.579 L 17.785 2.098 C 17.825 2.15 17.865 2.212 17.898 2.283 Z " fill="rgb(255,112,88)"/><path d=" M 19.385 5.471 L 20.1 7.004 L 19.963 12.42 L 19.198 12.777 L 19.385 5.471 Z " fill="rgb(76,219,196)"/><path d=" M 21.01 8.956 L 21.704 10.445 C 21.712 10.463 21.719 10.476 21.727 10.494 L 21.704 11.327 C 21.606 11.546 21.428 11.732 21.192 11.842 L 20.93 11.964 L 21.01 8.956 Z " fill="rgb(255,112,88)"/><rect x="4.139" y="5.368" width="15.529" height="9.363" transform="matrix(0.906,-0.423,0.423,0.906,-3.132,5.972)" fill="rgb(255,255,255)"/><g><rect x="14.329" y="4.2" width="3.061" height="3.6" transform="matrix(0.906,-0.423,0.423,0.906,-1.05,7.265)" fill="rgb(230,233,238)"/><rect x="5.723" y="11.627" width="7.328" height="0.54" transform="matrix(0.906,-0.423,0.423,0.906,-4.148,5.082)" fill="rgb(230,233,238)"/><rect x="6.281" y="12.823" width="7.328" height="0.54" transform="matrix(0.906,-0.423,0.423,0.906,-4.601,5.43)" fill="rgb(230,233,238)"/><rect x="6.966" y="14.591" width="4.62" height="0.54" transform="matrix(0.906,-0.423,0.423,0.906,-5.411,5.312)" fill="rgb(230,233,238)"/></g></g></g></svg>