<?xml version="1.0" encoding="UTF-8" standalone="no"?><!-- Generator: Gravit.io --><svg xmlns="http://www.w3.org/2000/svg" xmlns:xlink="http://www.w3.org/1999/xlink" style="isolation:isolate" viewBox="0 0 24 24" width="24pt" height="24pt"><defs><clipPath id="_clipPath_sgvodWF3vWYI2LkQi8TjeacAbXAw1Eux"><rect width="24" height="24"/></clipPath></defs><g clip-path="url(#_clipPath_sgvodWF3vWYI2LkQi8TjeacAbXAw1Eux)"><circle vector-effect="non-scaling-stroke" cx="12" cy="12.312500000000002" r="11.65625" fill="rgb(255,255,255)"/><g><g><path d=" M 12.597 1.971 C 12.682 1.969 12.767 1.969 12.852 1.971 C 12.768 1.992 12.681 1.989 12.597 1.971 Z " fill="rgb(20,2,7)" vector-effect="non-scaling-stroke" stroke-width="0.001" stroke="rgb(20,2,7)" stroke-linejoin="miter" stroke-linecap="butt" stroke-miterlimit="4"/></g><g><path d=" M 16.36 7.671 C 16.439 7.483 16.508 7.29 16.571 7.096 C 16.603 6.999 16.633 6.902 16.662 6.804 C 16.699 6.682 16.707 6.63 16.674 6.511 C 16.553 6.12 16.322 5.781 16.045 5.487 C 15.953 5.665 15.969 5.853 15.936 6.047 C 15.902 6.25 15.846 6.452 15.767 6.642 C 15.617 6.998 15.383 7.311 15.099 7.57 C 14.79 7.852 14.43 8.072 14.092 8.316 C 13.732 8.576 13.345 8.805 12.966 9.037 C 12.877 9.092 12.786 9.144 12.699 9.202 C 12.614 9.259 12.546 9.254 12.448 9.259 C 12.217 9.268 11.99 9.297 11.764 9.346 C 11.385 9.428 10.998 9.594 10.717 9.867 C 10.095 10.47 10.02 11.378 10.138 12.196 C 10.161 12.354 10.189 12.516 10.234 12.669 C 10.276 12.811 10.353 12.884 10.459 12.981 C 10.702 13.203 11.024 13.36 11.314 13.514 C 11.621 13.678 11.933 13.834 12.243 13.993 C 12.557 14.153 12.85 14.343 13.154 14.518 C 13.006 14.118 12.853 13.732 12.755 13.315 C 12.712 13.133 12.661 12.944 12.654 12.756 C 12.646 12.543 12.699 12.334 12.767 12.134 C 12.824 11.971 12.936 11.796 13.128 11.922 C 13.205 11.973 13.265 12.05 13.325 12.119 C 13.397 12.202 13.495 12.248 13.592 12.297 C 13.772 12.388 13.952 12.478 14.136 12.56 C 14.302 12.634 14.568 12.787 14.753 12.705 C 14.922 12.63 14.86 12.386 14.848 12.246 C 14.832 12.059 14.904 11.919 15.088 11.855 C 15.161 11.83 15.241 11.829 15.285 11.756 C 15.332 11.677 15.351 11.578 15.378 11.491 C 15.393 11.444 15.41 11.397 15.43 11.351 C 15.477 11.347 15.524 11.34 15.57 11.327 C 15.665 11.299 15.738 11.244 15.787 11.158 C 15.816 11.067 15.818 10.97 15.799 10.877 C 15.778 10.776 15.747 10.713 15.821 10.625 C 15.947 10.475 16.119 10.459 16.271 10.358 C 16.438 10.247 16.335 10.048 16.281 9.903 C 16.206 9.7 16.153 9.489 16.124 9.275 C 16.051 8.728 16.148 8.178 16.36 7.671 C 16.498 7.341 16.258 7.915 16.36 7.671 Z " fill="rgb(66,165,245)"/><path d=" M 19.531 9.503 C 19.169 9.235 18.858 8.902 18.629 8.514 C 18.394 8.116 18.274 7.676 18.148 7.236 C 18.01 6.76 17.887 6.28 17.751 5.804 C 17.622 5.353 17.483 4.907 17.21 4.518 C 16.954 4.153 16.611 3.867 16.208 3.677 C 16.01 3.573 15.858 3.426 15.692 3.279 C 15.506 3.109 15.311 2.948 15.106 2.802 C 14.339 2.256 13.43 1.913 12.482 1.976 C 11.282 2.057 10.164 2.795 9.357 3.651 C 9.315 3.502 8.262 4.037 8.138 4.122 C 7.772 4.372 7.475 4.707 7.262 5.095 C 6.798 5.937 6.776 6.937 6.571 7.858 C 6.464 8.339 6.296 8.748 6.008 9.15 C 5.724 9.544 5.455 9.95 5.215 10.373 C 4.736 11.217 4.393 12.146 4.274 13.114 C 4.181 13.872 4.301 14.657 4.837 15.233 C 5.076 15.49 5.376 15.678 5.668 15.866 C 6.009 16.087 6.334 16.328 6.659 16.572 C 6.94 16.784 7.289 16.995 7.512 17.271 C 7.744 17.558 7.567 17.935 7.218 18.008 C 6.905 18.074 6.596 17.874 6.52 17.566 C 6.488 17.438 6.493 17.276 6.596 17.18 C 6.737 17.05 6.979 17.157 7.133 17.202 C 6.902 16.824 6.435 16.668 6.051 16.938 C 5.696 17.187 5.645 17.706 5.717 18.099 C 5.88 18.981 6.751 19.655 7.657 19.437 C 8.515 19.23 8.887 18.262 8.646 17.469 C 8.375 16.58 7.464 16.057 6.798 15.485 C 6.319 15.073 5.899 14.598 5.598 14.04 C 5.456 13.775 5.34 13.496 5.266 13.204 C 5.227 13.05 5.189 12.888 5.194 12.729 C 5.199 12.569 5.198 12.392 5.176 12.234 C 5.211 11.583 5.485 10.964 5.783 10.394 C 6.089 9.811 6.462 9.264 6.879 8.754 C 6.861 8.844 6.873 8.945 6.815 9.022 C 6.754 9.115 6.694 9.21 6.638 9.306 C 6.514 9.514 6.403 9.729 6.305 9.951 C 6.111 10.391 5.977 10.855 5.907 11.331 C 5.768 12.289 5.853 13.284 6.241 14.177 C 6.603 15.008 7.211 15.745 7.933 16.29 C 8.286 16.557 8.621 16.824 8.838 17.219 C 9.051 17.609 9.117 18.064 8.994 18.494 C 8.863 18.951 8.527 19.306 8.223 19.657 C 7.92 20.005 7.593 20.351 7.399 20.775 C 7.045 21.548 7.159 22.68 7.937 23.162 C 8.293 23.383 8.805 23.447 9.196 23.282 C 9.381 23.204 9.534 23.07 9.647 22.905 C 9.707 22.817 9.756 22.723 9.797 22.625 C 9.818 22.576 9.837 22.526 9.856 22.476 C 9.887 22.392 9.97 22.448 10.048 22.462 C 10.485 22.543 11.006 22.52 11.353 22.207 C 11.65 21.938 11.763 21.457 11.57 21.095 C 11.413 20.801 11.098 20.697 10.782 20.744 C 10.924 20.899 11.098 20.988 11.177 21.196 C 11.244 21.375 11.195 21.591 11.037 21.706 C 10.747 21.914 10.138 21.693 9.961 21.414 C 9.731 21.051 10.176 20.518 10.417 20.267 C 10.738 19.934 11.124 19.688 11.482 19.402 C 12.252 18.786 12.594 17.911 12.551 16.939 C 12.509 15.98 11.761 15.321 11.137 14.676 C 10.961 14.493 10.786 14.309 10.602 14.134 C 10.517 14.052 10.43 13.971 10.344 13.889 C 10.264 13.813 10.13 13.722 10.096 13.614 C 10.296 13.72 10.478 13.889 10.662 14.02 C 10.87 14.168 11.079 14.314 11.286 14.463 C 11.703 14.761 12.143 15.057 12.491 15.436 C 12.791 15.763 13.047 16.164 13.083 16.617 C 13.102 16.856 13.058 17.095 12.969 17.318 C 12.923 17.433 12.865 17.544 12.799 17.649 C 12.744 17.735 12.664 17.816 12.634 17.915 C 13.446 17.619 14.039 16.604 13.925 15.762 C 13.854 15.357 13.643 14.983 13.349 14.697 C 13.038 14.394 12.628 14.189 12.243 13.993 C 11.823 13.778 11.393 13.573 10.987 13.332 C 10.801 13.225 10.611 13.118 10.453 12.975 C 10.273 12.814 10.222 12.659 10.178 12.421 C 10.014 11.539 10.034 10.522 10.723 9.861 C 11.159 9.444 11.801 9.293 12.386 9.262 C 12.459 9.258 12.547 9.269 12.617 9.249 C 12.679 9.224 12.734 9.179 12.79 9.145 C 12.946 9.05 13.101 8.955 13.256 8.858 C 13.537 8.684 13.824 8.51 14.092 8.316 C 14.574 7.968 15.098 7.66 15.459 7.175 C 15.636 6.938 15.773 6.673 15.856 6.389 C 15.899 6.242 15.933 6.091 15.952 5.939 C 15.973 5.776 15.967 5.637 16.045 5.487 C 16.21 5.662 16.352 5.833 16.464 6.046 C 16.578 6.263 16.663 6.483 16.799 6.688 C 17.084 7.119 17.377 7.544 17.687 7.958 C 17.981 8.35 18.288 8.737 18.631 9.088 C 18.798 9.26 18.976 9.43 19.174 9.566 C 19.278 9.638 19.387 9.704 19.507 9.745 C 19.645 9.791 19.742 9.759 19.88 9.737 C 19.762 9.662 19.643 9.588 19.531 9.503 C 19.391 9.4 19.643 9.588 19.531 9.503 Z " fill="rgb(23,2,8)"/></g></g></g></svg>